<?xml version="1.0" encoding="utf-8"?>
<svg version="1.1" xmlns:xlink="http://www.w3.org/1999/xlink" width="20px" height="14px" xmlns="http://www.w3.org/2000/svg">
  <g transform="matrix(1 0 0 1 -166 -461 )">
    <path d="M 19.125 7.80042613636364  C 19.7083333333333 8.49313446969697  20 9.28693181818182  20 10.1818181818182  C 20 11.2357954545455  19.609375 12.1356534090909  18.828125 12.8813920454545  C 18.046875 13.6271306818182  17.1041666666667 14  16 14  L 4.66666666666667 14  C 3.38194444444444 14  2.28298611111111 13.5641571969697  1.36979166666667 12.6924715909091  C 0.456597222222222 11.8207859848485  0 10.7717803030303  0 9.54545454545455  C 0 8.67045454545455  0.246527777777778 7.87002840909091  0.739583333333333 7.14417613636364  C 1.23263888888889 6.41832386363636  1.88194444444444 5.87642045454546  2.6875 5.51846590909091  C 2.67361111111111 5.33285984848485  2.66666666666667 5.19034090909091  2.66666666666667 5.09090909090909  C 2.66666666666667 3.68560606060606  3.1875 2.48579545454546  4.22916666666667 1.49147727272727  C 5.27083333333333 0.497159090909091  6.52777777777778 0  8 0  C 9.09722222222222 0  10.0920138888889 0.291666666666666  10.984375 0.875  C 11.8767361111111 1.45833333333333  12.5277777777778 2.22064393939394  12.9375 3.16193181818182  C 13.4236111111111 2.75094696969697  14 2.54545454545455  14.6666666666667 2.54545454545455  C 15.4027777777778 2.54545454545455  16.03125 2.79403409090909  16.5520833333333 3.29119318181818  C 17.0729166666667 3.78835227272727  17.3333333333333 4.38825757575757  17.3333333333333 5.09090909090909  C 17.3333333333333 5.58806818181818  17.1909722222222 6.04545454545455  16.90625 6.46306818181818  C 17.8020833333333 6.66193181818182  18.5416666666667 7.1077178030303  19.125 7.80042613636364  Z " fill-rule="nonzero" fill="#797979" stroke="none" transform="matrix(1 0 0 1 166 461 )" />
  </g>
</svg>