<?xml version="1.0" encoding="utf-8"?>
<svg version="1.1" xmlns:xlink="http://www.w3.org/1999/xlink" width="20px" height="14px" xmlns="http://www.w3.org/2000/svg">
  <g transform="matrix(1 0 0 1 -233 -461 )">
    <path d="M 12.0793269230769 6.82682291666667  C 12.2315705128205 6.71137152777778  12.3076923076923 6.57465277777778  12.3076923076923 6.41666666666667  C 12.3076923076923 6.25868055555555  12.2315705128205 6.12196180555555  12.0793269230769 6.00651041666667  C 11.9270833333333 5.89105902777778  11.7467948717949 5.83333333333333  11.5384615384615 5.83333333333333  L 8.46153846153846 5.83333333333333  C 8.25320512820513 5.83333333333333  8.07291666666667 5.89105902777778  7.92067307692308 6.00651041666667  C 7.76842948717949 6.12196180555555  7.69230769230769 6.25868055555555  7.69230769230769 6.41666666666667  C 7.69230769230769 6.57465277777778  7.76842948717949 6.71137152777778  7.92067307692308 6.82682291666667  C 8.07291666666667 6.94227430555555  8.25320512820513 7  8.46153846153846 7  L 11.5384615384615 7  C 11.7467948717949 7  11.9270833333333 6.94227430555555  12.0793269230769 6.82682291666667  Z M 19.0024038461538 4.25651041666667  C 19.1546474358974 4.37196180555555  19.2307692307692 4.50868055555555  19.2307692307692 4.66666666666667  L 19.2307692307692 13.4166666666667  C 19.2307692307692 13.5746527777778  19.1546474358974 13.7113715277778  19.0024038461538 13.8268229166667  C 18.8501602564103 13.9422743055556  18.6698717948718 14  18.4615384615385 14  L 1.53846153846154 14  C 1.33012820512821 14  1.14983974358974 13.9422743055556  0.997596153846154 13.8268229166667  C 0.845352564102564 13.7113715277778  0.769230769230769 13.5746527777778  0.769230769230769 13.4166666666667  L 0.769230769230769 4.66666666666667  C 0.769230769230769 4.50868055555555  0.845352564102564 4.37196180555555  0.997596153846154 4.25651041666667  C 1.14983974358974 4.14105902777778  1.33012820512821 4.08333333333333  1.53846153846154 4  L 18.4615384615385 4  C 18.6698717948718 4.08333333333333  18.8501602564103 4.14105902777778  19.0024038461538 4.25651041666667  Z M 19.7716346153846 0.173177083333333  C 19.9238782051282 0.28862847222222  20 0.42534722222222  20 0.583333333333333  L 20 2.91666666666667  C 20 3.07465277777778  19.9238782051282 3.21137152777778  19.7716346153846 3.32682291666667  C 19.619391025641 3.44227430555555  19.4391025641026 3.5  19.2307692307692 3.5  L 0.769230769230769 3.5  C 0.560897435897436 3.5  0.380608974358975 3.44227430555555  0.228365384615385 3.32682291666667  C 0.076121794871795 3.21137152777778  0 3.07465277777778  0 2.91666666666667  L 0 0.583333333333333  C 0 0.42534722222222  0.076121794871795 0.28862847222222  0.228365384615385 0.173177083333333  C 0.380608974358975 0.0577256944444438  0.560897435897436 0  0.769230769230769 0  L 19.2307692307692 0  C 19.4391025641026 0  19.619391025641 0.0577256944444438  19.7716346153846 0.173177083333333  Z " fill-rule="nonzero" fill="#4ec2a6" stroke="none" fill-opacity="0.992156862745098" transform="matrix(1 0 0 1 233 461 )" />
  </g>
</svg>