<?xml version="1.0" encoding="utf-8"?>
<svg version="1.1" xmlns:xlink="http://www.w3.org/1999/xlink" width="35px" height="29px" xmlns="http://www.w3.org/2000/svg">
  <g transform="matrix(1 0 0 1 -252 -236 )">
    <path d="M 29.2122669873722 15.9211647727273  C 29.4928843455602 16.0310132575758  29.6331930246542 16.2301136363636  29.6331930246542 16.5184659090909  L 29.6331930246542 23.0681818181818  C 29.6331930246542 24.702178030303  29.0403888554821 26.0993134469697  27.8547805171377 27.2595880681818  C 26.6691721787933 28.4198626893939  25.2415313690118 29  23.5718580877931 29  L 6.06133493686109 29  C 4.39166165564241 29  2.96402084586089 28.4198626893939  1.77841250751654 27.2595880681818  C 0.592804169172179 26.0993134469697  0 24.702178030303  0 23.0681818181818  L 0 5.93181818181818  C 0 4.29782196969697  0.592804169172179 2.9006865530303  1.77841250751654 1.74041193181818  C 2.96402084586089 0.580137310606058  4.39166165564241 0  6.06133493686109 0  L 23.5718580877931 0  C 24.4558027660854 0  25.2766085387853 0.171638257575756  26.034275405893 0.514914772727271  C 26.244738424534 0.611032196969695  26.3710162357186 0.768939393939393  26.4131088394468 0.988636363636363  C 26.455201443175 1.22206439393939  26.3920625375827 1.42116477272727  26.2236921226699 1.5859375  L 25.1924233313289 2.59517045454545  C 25.0521146522349 2.73248106060606  24.8907596712768 2.80113636363636  24.7083583884546 2.80113636363636  C 24.6662657847264 2.80113636363636  24.6031268791341 2.7874053030303  24.5189416716777 2.75994318181818  C 24.1962317097615 2.67755681818182  23.8805371818 2.63636363636364  23.5718580877931 3  L 6.06133493686109 3  C 5.13529765484065 2.63636363636364  4.34255361795951 2.95904356060606  3.68310282621768 3.60440340909091  C 3.02365203447585 4.24976325757576  2.69392663860493 5.02556818181818  3 5.93181818181818  L 3 23.0681818181818  C 2.69392663860493 23.9744318181818  3.02365203447585 24.7502367424242  3.68310282621768 25.3955965909091  C 4.34255361795951 26.0409564393939  5.13529765484065 26.3636363636364  6.06133493686109 26  L 23.5718580877931 26  C 24.4978953698136 26.3636363636364  25.2906394066947 26.0409564393939  25.9500901984366 25.3955965909091  C 26.6095409901784 24.7502367424242  26.9392663860493 23.9744318181818  26.9392663860493 23.0681818181818  L 26.9392663860493 17.8366477272727  C 26.9392663860493 17.6581439393939  27.0024052916416 17.5071022727273  27.1286831028262 17.3835227272727  L 28.4756464221287 16.0653409090909  C 28.6159551012227 15.9280303030303  28.7773100821808 15.859375  28.959711365003 15.859375  C 29.0438965724594 15.859375  29.1280817799158 15.8799715909091  29.2122669873722 15.9211647727273  Z M 35 5.27272727272727  C 35 5.72585227272727  34.8316295850872 6.1171875  34.4948887552616 6.44673295454545  L 17.3631990378833 23.2123579545455  C 17.0264582080577 23.5419034090909  16.6265784726398 23.7066761363636  16.1635598316296 23.7066761363636  C 15.7005411906194 23.7066761363636  15.3006614552014 23.5419034090909  14.9639206253758 23.2123579545455  L 5.91401082381239 14.3558238636364  C 5.57726999398677 14.0262784090909  5.40889957907396 13.6349431818182  5.40889957907396 13.1818181818182  C 5.40889957907396 12.7286931818182  5.57726999398677 12.3373579545455  5.91401082381239 12.0078125  L 8.2291040288635 9.7421875  C 8.56584485868912 9.41264204545455  8.96572459410704 9.24786931818182  9.42874323511726 9.24786931818182  C 9.89176187612748 9.24786931818182  10.2916416115454 9.41264204545455  10.628382441371 9.7421875  L 16.1635598316296 15.1590909090909  L 29.7805171377029 1.83309659090909  C 30.1172579675286 1.50355113636364  30.5171377029465 1.33877840909091  30.9801563439567 1.33877840909091  C 31.4431749849669 1.33877840909091  31.8430547203848 1.50355113636364  32.1797955502105 1.83309659090909  L 34.4948887552616 4.09872159090909  C 34.8316295850872 4.42826704545455  35 4.81960227272727  35 5.27272727272727  Z " fill-rule="nonzero" fill="#797979" stroke="none" transform="matrix(1 0 0 1 252 236 )" />
  </g>
</svg>