<?xml version="1.0" encoding="utf-8"?>
<svg version="1.1" xmlns:xlink="http://www.w3.org/1999/xlink" width="35px" height="22px" xmlns="http://www.w3.org/2000/svg">
  <g transform="matrix(1 0 0 1 -135 -137 )">
    <path d="M 5 1.1  L 5 13  L 33.90625 13  C 34.2024739583333 13.2  34.4588216145833 13.3088541666667  34.67529296875 13.5265625  C 34.8917643229167 13.7442708333333  35 14.0020833333333  35 14.3  L 35 22  L 30.625 22  L 30.625 17.6  L 4.375 17.6  L 4.375 22  L 0 22  L 0 1.1  C 0 0.802083333333332  0.108235677083333 0.544270833333332  0.32470703125 0.326562500000001  C 0.541178385416667 0.108854166666665  0.797526041666667 0  1.09375 0  L 3.28125 0  C 3.57747395833333 0  3.83382161458333 0.108854166666665  4.05029296875 0.326562500000001  C 4.26676432291667 0.544270833333332  4.375 0.802083333333332  5 1.1  Z M 12.93701171875 10.8109375  C 13.79150390625 9.9515625  14.21875 8.91458333333333  14.21875 7.7  C 14.21875 6.48541666666666  13.79150390625 5.4484375  12.93701171875 4.5890625  C 12.08251953125 3.7296875  11.0514322916667 3.3  9.84375 3.3  C 8.63606770833333 3.3  7.60498046875 3.7296875  6.75048828125 4.5890625  C 5.89599609375 5.4484375  5.46875 6.48541666666666  5.46875 7.7  C 5.46875 8.91458333333333  5.89599609375 9.9515625  6.75048828125 10.8109375  C 7.60498046875 11.6703125  8.63606770833333 12.1  9.84375 12.1  C 11.0514322916667 12.1  12.08251953125 11.6703125  12.93701171875 10.8109375  Z M 15.3125 12  L 35 12  L 35 11  C 35 9.178125  34.359130859375 7.62265625  33.077392578125 6.33359375  C 31.795654296875 5.04453125  30.2490234375 4.4  28.4375 4.4  L 16.40625 4.4  C 16.1100260416667 4.4  15.8536783854167 4.50885416666666  15.63720703125 4.7265625  C 15.4207356770833 4.94427083333333  15.3125 5.20208333333333  15.3125 5.5  L 15.3125 12  Z " fill-rule="nonzero" fill="#797979" stroke="none" transform="matrix(1 0 0 1 135 137 )" />
  </g>
</svg>