<?xml version="1.0" encoding="utf-8"?>
<svg version="1.1" xmlns:xlink="http://www.w3.org/1999/xlink" width="35px" height="37px" xmlns="http://www.w3.org/2000/svg">
  <g transform="matrix(1 0 0 1 -114 -121 )">
    <path d="M 28.3709016393443 23.106923506421  C 28.9924863387978 21.6401451702959  29.3032786885246 20.1010608598548  29.3032786885246 18.4896705750977  C 29.3032786885246 16.8782802903406  28.9924863387978 15.3391959798995  28.3709016393443 13.8724176437744  C 27.7493169398907 12.4056393076494  26.9091530054645 11.1385631863019  25.8504098360656 10.071189279732  C 24.7916666666667 9.00381537316211  23.5348360655738 8.15680253117439  22.0799180327869 7.53015075376885  C 20.625 6.90349897636329  19.0983606557377 6.59017308766053  17.5 6.59017308766053  C 15.9016393442623 6.59017308766053  14.375 6.90349897636329  12.9200819672131 7.53015075376885  C 11.4651639344262 8.15680253117439  10.2083333333333 9.00381537316211  9.14959016393443 10.071189279732  C 8.09084699453552 11.1385631863019  7.25068306010929 12.4056393076494  6.62909836065574 13.8724176437744  C 6.00751366120219 15.3391959798995  5.69672131147541 16.8782802903406  5.69672131147541 18.4896705750977  C 5.69672131147541 20.1010608598548  6.00751366120219 21.6401451702959  6.62909836065574 23.106923506421  C 7.25068306010929 24.5737018425461  8.09084699453552 25.8407779638935  9.14959016393443 26.9081518704634  C 10.2083333333333 27.9755257770333  11.4651639344262 28.822538619021  12.9200819672131 29.4491903964266  C 14.375 30.0758421738321  15.9016393442623 30.3891680625349  17.5 30.3891680625349  C 19.0983606557377 30.3891680625349  20.625 30.0758421738321  22.0799180327869 29.4491903964266  C 23.5348360655738 28.822538619021  24.7916666666667 27.9755257770333  25.8504098360656 26.9081518704634  C 26.9091530054645 25.8407779638935  27.7493169398907 24.5737018425461  28.3709016393443 23.106923506421  Z M 34.8770491803279 23.6130653266332  C 35 23.7783361250698  35.0273224043716 23.9780383398474  34.9590163934426 24.2121719709659  C 34.9043715846995 24.4187604690117  34.7677595628415 24.5564861343756  34.5491803278689 24.6253489670575  L 28.5655737704918 26.608598548297  L 28.5655737704918 32.930206588498  C 28.5655737704918 33.1505676530802  28.4767759562842 33.3296110180532  28.2991803278689 33.4673366834171  C 28.094262295082 33.6050623487809  27.896174863388 33.6326074818537  27.7049180327869 33.5499720826354  L 21.7213114754098 31.608040201005  L 18.0327868852459 36.7314349525405  C 17.896174863388 36.9104783175135  17.7185792349727 37  17.5 37  C 17.2814207650273 37  17.103825136612 36.9104783175135  16.9672131147541 36.7314349525405  L 13.2786885245902 31.608040201005  L 7.29508196721311 33.5499720826354  C 7.10382513661202 33.6326074818537  6.90573770491803 33.6050623487809  6.70081967213115 33.4673366834171  C 6.52322404371585 33.3296110180532  6.4344262295082 33.1505676530802  6.4344262295082 32.930206588498  L 6.4344262295082 26.608598548297  L 0.450819672131148 24.6253489670575  C 0.23224043715847 24.5564861343756  0.0956284153005464 24.4187604690117  0.040983606557377 24.2121719709659  C -0.0273224043715846 23.9780383398474  0 23.7783361250698  0.122950819672131 23.6130653266332  L 3.81147540983607 18.4896705750977  L 0.122950819672131 13.3662758235623  C 0 13.1872324585892  -0.0273224043715846 12.9875302438116  0.040983606557377 12.7671691792295  C 0.0956284153005464 12.5605806811837  0.23224043715847 12.4228550158198  0.450819672131148 12.3539921831379  L 6.4344262295082 10.3707426018984  L 6.4344262295082 4.04913456169738  C 6.4344262295082 3.8287734971152  6.52322404371585 3.64973013214219  6.70081967213115 3.51200446677833  C 6.90573770491803 3.37427880141448  7.10382513661202 3.34673366834171  7.29508196721311 3.42936906756002  L 13.2786885245902 5.37130094919039  L 16.9672131147541 0.24790619765494  C 17.0901639344262 0.0826353992183119  17.2677595628415 0  17.5 0  C 17.7322404371585 0  17.9098360655738 0.0826353992183119  18.0327868852459 0.24790619765494  L 21.7213114754098 5.37130094919039  L 27.7049180327869 3.42936906756002  C 27.896174863388 3.34673366834171  28.094262295082 3.37427880141448  28.2991803278689 3.51200446677833  C 28.4767759562842 3.64973013214219  28.5655737704918 3.8287734971152  28.5655737704918 4.04913456169738  L 28.5655737704918 10.3707426018984  L 34.5491803278689 12.3539921831379  C 34.7677595628415 12.4228550158198  34.9043715846995 12.5605806811837  34.9590163934426 12.7671691792295  C 35.0273224043716 12.9875302438116  35 13.1872324585892  34.8770491803279 13.3662758235623  L 31.1885245901639 18.4896705750977  L 34.8770491803279 23.6130653266332  Z " fill-rule="nonzero" fill="#555555" stroke="none" transform="matrix(1 0 0 1 114 121 )" />
  </g>
</svg>