<?xml version="1.0" encoding="utf-8"?>
<svg version="1.1" xmlns:xlink="http://www.w3.org/1999/xlink" width="25px" height="35px" xmlns="http://www.w3.org/2000/svg">
  <g transform="matrix(1 0 0 1 -119 -197 )">
    <path d="M 11.58447265625 28.0213994565217  C 12.19482421875 27.4269701086957  12.5 26.7096920289855  12.5 25.8695652173913  C 12.5 25.2989130434783  12.3372395833333 24.7520380434783  12.01171875 24.2289402173913  C 11.9954427083333 24.2130887681159  11.8693033854167 24.0347599637681  11.63330078125 23.6939538043478  C 11.3972981770833 23.3531476449275  11.1897786458333 23.0519701086957  11.0107421875 22.7904211956522  C 10.8317057291667 22.5288722826087  10.6282552083333 22.1801403985507  10.400390625 21.7442255434783  C 10.1725260416667 21.3083106884058  10.0016276041667 20.9080615942029  9.8876953125 20.5434782608696  C 9.82259114583333 20.2898550724638  9.65169270833333 20.1630434782609  9.375 20.1630434782609  C 9.09830729166667 20.1630434782609  8.92740885416667 20.2898550724638  8.8623046875 20.5434782608696  C 8.74837239583333 20.9080615942029  8.57747395833333 21.3083106884058  8.349609375 21.7442255434783  C 8.12174479166667 22.1801403985507  7.91829427083333 22.5288722826087  7.7392578125 22.7904211956522  C 7.56022135416667 23.0519701086957  7.35270182291667 23.3531476449275  7.11669921875 23.6939538043478  C 6.88069661458333 24.0347599637681  6.75455729166667 24.2130887681159  6.73828125 24.2289402173913  C 6.41276041666667 24.7520380434783  6.25 25.2989130434783  6.25 25.8695652173913  C 6.25 26.7096920289855  6.55517578125 27.4269701086957  7.16552734375 28.0213994565217  C 7.77587890625 28.6158288043478  8.51236979166667 28.9130434782609  9.375 28.9130434782609  C 10.2376302083333 28.9130434782609  10.97412109375 28.6158288043478  11.58447265625 28.0213994565217  Z M 23.0224609375 16.2873641304348  C 24.3408203125 18.3004981884058  25 20.4800724637681  25 22.8260869565217  C 25 26.1865942028985  23.779296875 29.0557065217391  21.337890625 31.4334239130435  C 18.896484375 33.8111413043478  15.9505208333333 35  12.5 35  C 9.04947916666667 35  6.103515625 33.8111413043478  3.662109375 31.4334239130435  C 1.220703125 29.0557065217391  0 26.1865942028985  0 22.8260869565217  C 0 20.5276268115942  0.6591796875 18.3480525362319  1.9775390625 16.2873641304348  C 2.0751953125 16.1447010869565  2.58382161458333 15.4274230072464  3.50341796875 14.1355298913043  C 4.42301432291667 12.8436367753623  5.24495442708333 11.6468523550725  5.96923828125 10.5451766304348  C 6.69352213541667 9.4435009057971  7.50325520833333 8.03272192028985  8.3984375 6.31283967391304  C 9.29361979166667 4.59295742753623  9.96907552083333 2.99592391304348  10.4248046875 1.52173913043478  C 10.5712890625 1.04619565217391  10.8479817708333 0.673686594202895  11.2548828125 0.404211956521739  C 11.6617838541667 0.134737318840576  12.0768229166667 0  12.5 0  C 12.9231770833333 0  13.34228515625 0.134737318840576  13.75732421875 0.404211956521739  C 14.17236328125 0.673686594202895  14.4449869791667 1.04619565217391  14.5751953125 1.52173913043478  C 15.0309244791667 2.99592391304348  15.7063802083333 4.59295742753623  16.6015625 6.31283967391304  C 17.4967447916667 8.03272192028985  18.3064778645833 9.4435009057971  19.03076171875 10.5451766304348  C 19.7550455729167 11.6468523550725  20.5769856770833 12.8436367753623  21.49658203125 14.1355298913043  C 22.4161783854167 15.4274230072464  22.9248046875 16.1447010869565  23.0224609375 16.2873641304348  Z " fill-rule="nonzero" fill="#555555" stroke="none" transform="matrix(1 0 0 1 119 197 )" />
  </g>
</svg>